<?xml version="1.0" encoding="UTF-8" standalone="no"?>
<!-- Creator: CorelDRAW 2020 (64-Bit) -->

<svg
   xml:space="preserve"
   width="1000"
   height="1000"
   version="1.1"
   style="clip-rule:evenodd;fill-rule:evenodd;image-rendering:optimizeQuality;shape-rendering:geometricPrecision;text-rendering:geometricPrecision"
   viewBox="0 0 1000 1000"
   id="svg498"
   sodipodi:docname="logo-platinum.svg"
   inkscape:version="1.3.2 (091e20ef0f, 2023-11-25)"
   inkscape:export-filename="logoBadge.png"
   inkscape:export-xdpi="96"
   inkscape:export-ydpi="96"
   xmlns:inkscape="http://www.inkscape.org/namespaces/inkscape"
   xmlns:sodipodi="http://sodipodi.sourceforge.net/DTD/sodipodi-0.dtd"
   xmlns:xlink="http://www.w3.org/1999/xlink"
   xmlns="http://www.w3.org/2000/svg"
   xmlns:svg="http://www.w3.org/2000/svg"><sodipodi:namedview
   id="namedview500"
   pagecolor="#141414"
   bordercolor="#000000"
   borderopacity="0.25"
   inkscape:showpageshadow="2"
   inkscape:pageopacity="0.0"
   inkscape:pagecheckerboard="0"
   inkscape:deskcolor="#3c3c3c"
   showgrid="false"
   inkscape:zoom="0.659981468874"
   inkscape:cx="721.989968616"
   inkscape:cy="611.380802386"
   inkscape:window-width="1920"
   inkscape:window-height="1011"
   inkscape:window-x="0"
   inkscape:window-y="0"
   inkscape:window-maximized="1"
   inkscape:current-layer="layer2"
   showguides="true"
   inkscape:lockguides="false" />
 <defs
   id="defs458"><linearGradient
     id="linearGradient62"
     gradientUnits="userSpaceOnUse"
     x1="1202.65"
     y1="789.88"
     x2="1199.9"
     y2="1235.08">
   
   <stop
   offset="0.1352600455"
   style="stop-color:#878787;stop-opacity:0.6999999881;"
   id="stop59" />
   <stop
   offset="0.3995192051"
   style="stop-color:#b4b4b4;stop-opacity:1;"
   id="stop60" />
   <stop
   offset="0.70986408"
   style="stop-opacity:1; stop-color:#EDEDED"
   id="stop61" />
   <stop
   offset="1"
   style="stop-color:#8c8c8c;stop-opacity:0.400000006;"
   id="stop62" />
  </linearGradient><linearGradient
     id="linearGradient58"
     gradientUnits="userSpaceOnUse"
     x1="1202.65"
     y1="789.88"
     x2="1199.9"
     y2="1235.08">
   
   <stop
   offset="0.219607994"
   style="stop-color:#8f8f8f;stop-opacity:0.6999999881;"
   id="stop55" />
   <stop
   offset="0.521569"
   style="stop-opacity:1; stop-color:#7D7D7D"
   id="stop56" />
   <stop
   offset="0.780392"
   style="stop-opacity:1; stop-color:#EDEDED"
   id="stop57" />
   <stop
   offset="1"
   style="stop-color:#646464;stop-opacity:1;"
   id="stop58" />
  </linearGradient><linearGradient
     id="linearGradient44"
     gradientUnits="userSpaceOnUse"
     x1="1202.65"
     y1="789.88"
     x2="1199.9"
     y2="1235.08">
   <stop
   offset="0"
   style="stop-opacity:1; stop-color:#757575"
   id="stop40" />
   <stop
   offset="0.219608"
   style="stop-opacity:1; stop-color:#F0F0F0"
   id="stop41" />
   <stop
   offset="0.521569"
   style="stop-opacity:1; stop-color:#7D7D7D"
   id="stop42" />
   <stop
   offset="0.8128131628"
   style="stop-opacity:1; stop-color:#EDEDED"
   id="stop43" />
   <stop
   offset="1"
   style="stop-opacity:1; stop-color:#2B2B2B"
   id="stop44" />
  </linearGradient><linearGradient
     id="linearGradient35"
     gradientUnits="userSpaceOnUse"
     x1="1197.54"
     y1="734.91998"
     x2="1200.05"
     y2="1242.72"
     spreadMethod="pad"
     inkscape:label="SA">
   
   
   <stop
   offset="0"
   style="stop-color:#c4c4c4;stop-opacity:0;"
   id="stop32" /><stop
   offset="0.3516111374"
   style="stop-color:#ffffff;stop-opacity:1;"
   id="stop33" /><stop
   offset="0.8254902363"
   style="stop-color:#7d7d7d;stop-opacity:1;"
   id="stop34" />
   <stop
   offset="1"
   style="stop-color:#646464;stop-opacity:1;"
   id="stop35" />
   
  </linearGradient><linearGradient
     id="linearGradient11"
     gradientUnits="userSpaceOnUse"
     x1="1197.54"
     y1="734.91998"
     x2="1200.05"
     y2="1242.72"
     spreadMethod="pad"
     inkscape:label="SA">
   
   
   <stop
   offset="0"
   style="stop-opacity:1; stop-color:#7D7D7D"
   id="stop9" /><stop
   offset="0.2749448419"
   style="stop-color:#ffffff;stop-opacity:1;"
   id="stop10" /><stop
   offset="0.8254902363"
   style="stop-color:#7d7d7d;stop-opacity:1;"
   id="stop12" />
   <stop
   offset="1"
   style="stop-color:#646464;stop-opacity:1;"
   id="stop11" />
   
  </linearGradient><linearGradient
     id="linearGradient4618"
     inkscape:swatch="solid"><stop
       style="stop-color:#ffffff;stop-opacity:1;"
       offset="0"
       id="stop4616" /></linearGradient><linearGradient
     id="linearGradient47350"
     gradientUnits="userSpaceOnUse"
     x1="590.82001"
     y1="970.98999"
     x2="653.27002"
     y2="1036.17">
   <stop
   offset="0"
   style="stop-color:#1eb6c8;stop-opacity:1;"
   id="stop47346" /><stop
   offset="0.47540298"
   style="stop-color:#21a4c5;stop-opacity:1;"
   id="stop67958" />
   <stop
   offset="1"
   style="stop-color:#2492c2;stop-opacity:1;"
   id="stop47348" />
  </linearGradient><style
     type="text/css"
     id="style364">
   <![CDATA[
    .fil0 {fill:white}
    .fil1 {fill:black;fill-rule:nonzero}
    .fil2 {fill:white;fill-rule:nonzero}
    .fil5 {fill:url(#id0)}
    .fil12 {fill:url(#id1)}
    .fil15 {fill:url(#id2)}
    .fil11 {fill:url(#id3)}
    .fil10 {fill:url(#id4)}
    .fil7 {fill:url(#id5)}
    .fil16 {fill:url(#id6)}
    .fil13 {fill:url(#id7)}
    .fil6 {fill:url(#id8)}
    .fil14 {fill:url(#id9)}
    .fil9 {fill:url(#id10)}
    .fil8 {fill:url(#id11)}
    .fil4 {fill:url(#id12);fill-rule:nonzero}
    .fil3 {fill:url(#id13);fill-rule:nonzero}
   ]]>
  </style><linearGradient
     id="id0-1"
     gradientUnits="userSpaceOnUse"
     x1="1197.54"
     y1="734.91998"
     x2="1200.05"
     y2="1242.72"
     spreadMethod="pad"
     inkscape:label="SA-main">
   
   
   <stop
   offset="0"
   style="stop-opacity:1; stop-color:#7D7D7D"
   id="stop370" /><stop
   offset="0.6509804726"
   style="stop-color:#ffffff;stop-opacity:1;"
   id="stop7" />
   <stop
   offset="1"
   style="stop-color:#7d7d7d;stop-opacity:1;"
   id="stop372" />
   
  </linearGradient><linearGradient
     id="id2"
     gradientUnits="userSpaceOnUse"
     x1="681.87"
     y1="1005.08"
     x2="825.79999"
     y2="1068.09"
     gradientTransform="translate(-495.72004,-498.53933)">
   <stop
   offset="0.14425844"
   style="stop-color:#16c8d5;stop-opacity:1;"
   id="stop382" />
   <stop
   offset="0.18680455"
   style="stop-color:#1eb6c8;stop-opacity:1;"
   id="stop384" /><stop
   offset="0.43038145"
   style="stop-color:#0a7d8f;stop-opacity:1;"
   id="stop50558" />
   <stop
   offset="1"
   style="stop-opacity:1; stop-color:#1AAECE"
   id="stop386" />
  </linearGradient><linearGradient
     id="id8"
     gradientUnits="userSpaceOnUse"
     x1="1202.65"
     y1="789.88"
     x2="1199.9"
     y2="1235.08">
   <stop
   offset="0"
   style="stop-opacity:1; stop-color:#757575"
   id="stop418" />
   <stop
   offset="0.219608"
   style="stop-opacity:1; stop-color:#F0F0F0"
   id="stop420" />
   <stop
   offset="0.521569"
   style="stop-opacity:1; stop-color:#7D7D7D"
   id="stop422" />
   <stop
   offset="0.780392"
   style="stop-opacity:1; stop-color:#EDEDED"
   id="stop424" />
   <stop
   offset="1"
   style="stop-opacity:1; stop-color:#2B2B2B"
   id="stop426" />
  </linearGradient><linearGradient
     id="id9"
     gradientUnits="userSpaceOnUse"
     x1="847.12"
     y1="1238.89"
     x2="851.14001"
     y2="1119.62"
     gradientTransform="translate(-495.72004,-498.53933)">
   <stop
   offset="0"
   style="stop-opacity:1; stop-color:#2D166E"
   id="stop429" />
   <stop
   offset="1"
   style="stop-opacity:1; stop-color:#2492C4"
   id="stop431" />
  </linearGradient><linearGradient
     inkscape:collect="always"
     xlink:href="#id8"
     id="linearGradient47150"
     x1="976.92999"
     y1="1001.345"
     x2="1417.84"
     y2="1001.345"
     gradientUnits="userSpaceOnUse"
     gradientTransform="translate(-495.72004,-498.53933)" /><linearGradient
     inkscape:collect="always"
     xlink:href="#linearGradient47350"
     id="linearGradient47342"
     x1="814.38"
     y1="1087.8291"
     x2="890.98047"
     y2="1087.8291"
     gradientUnits="userSpaceOnUse"
     gradientTransform="translate(-495.71942,-498.53843)" /><linearGradient
     inkscape:collect="always"
     xlink:href="#id0-1"
     id="linearGradient78296"
     gradientUnits="userSpaceOnUse"
     x1="920.095275879"
     y1="702.530151367"
     x2="694.539978027"
     y2="1001.67999268"
     gradientTransform="translate(-495.72004,-498.53933)" /><linearGradient
     inkscape:collect="always"
     xlink:href="#id8"
     id="linearGradient8849"
     gradientUnits="userSpaceOnUse"
     x1="1202.65"
     y1="789.88"
     x2="1199.9"
     y2="1235.08"
     gradientTransform="translate(-495.72004,-498.53933)" /><linearGradient
     inkscape:collect="always"
     xlink:href="#id0-1"
     id="linearGradient2"
     x1="89.0838394165"
     y1="355.692077637"
     x2="163.478546143"
     y2="275.541168213"
     gradientUnits="userSpaceOnUse" /><linearGradient
     inkscape:collect="always"
     xlink:href="#linearGradient11"
     id="linearGradient9"
     x1="273.65512085"
     y1="500.480682373"
     x2="473.499969482"
     y2="306.569396973"
     gradientUnits="userSpaceOnUse" /><linearGradient
     inkscape:collect="always"
     xlink:href="#id0-1"
     id="linearGradient14"
     x1="156.019958496"
     y1="401.47567749"
     x2="293.646972656"
     y2="401.47567749"
     gradientUnits="userSpaceOnUse" /><linearGradient
     inkscape:collect="always"
     xlink:href="#linearGradient11"
     id="linearGradient16"
     x1="340.499969482"
     y1="530.330688477"
     x2="475.612670898"
     y2="439.920684814"
     gradientUnits="userSpaceOnUse" /><linearGradient
     inkscape:collect="always"
     xlink:href="#id0-1"
     id="linearGradient18"
     x1="91.3401947021"
     y1="539.891418457"
     x2="150.009963989"
     y2="472.640655518"
     gradientUnits="userSpaceOnUse" /><linearGradient
     inkscape:collect="always"
     xlink:href="#id0-1"
     id="linearGradient20"
     x1="150.114318848"
     y1="559.736572266"
     x2="459.87411499"
     y2="559.736572266"
     gradientUnits="userSpaceOnUse" /><linearGradient
     inkscape:collect="always"
     xlink:href="#linearGradient35"
     id="linearGradient22"
     x1="255.22996521"
     y1="417.318603516"
     x2="320.164733887"
     y2="417.318603516"
     gradientUnits="userSpaceOnUse" /><linearGradient
     inkscape:collect="always"
     xlink:href="#linearGradient58"
     id="linearGradient46"
     x1="154.179870605"
     y1="544.84564209"
     x2="340.889953613"
     y2="544.84564209"
     gradientUnits="userSpaceOnUse" /><linearGradient
     inkscape:collect="always"
     xlink:href="#linearGradient62"
     id="linearGradient59"
     gradientUnits="userSpaceOnUse"
     x1="154.179870605"
     y1="544.84564209"
     x2="340.889953613"
     y2="544.84564209" /></defs>
 <rect
   style="clip-rule:evenodd;display:none;opacity:0.500271;fill:#ff01c9;fill-opacity:1;fill-rule:evenodd;stroke:#000000;stroke-width:0;stroke-dasharray:none;stroke-opacity:1;image-rendering:optimizeQuality;shape-rendering:geometricPrecision;text-rendering:geometricPrecision"
   id="rect7506"
   width="844.23999"
   height="507.46457"
   x="77.880005"
   y="246.26772"
   sodipodi:insensitive="true" /><g
   inkscape:groupmode="layer"
   id="layer1"
   inkscape:label="Suplexer"
   style="display:inline"><path
     class="fil7"
     d="m 161.97996,679.26067 c 58.71,27.16 113.95,29.6 151.63,18.49 69.48,-20.48 60.38,-81.78 5.22,-108.46 -38.39,-18.56 -92.39,-18.95 -125.78,-29.03 -49.03,-14.79 -51.09,-52.28 -30.95,-76.71 18.63,-22.58 68.27,-31.55 92.35,-42.81 35.7,-16.69 64.67,-40.07 36.1,-68.28 33.58,-22.76 60.82,16.59 48.18,53.87 -5.74,16.95 -17.67,33.72 -33.44,48.93 43.24,14.29 77.45,35.6 102.56,60.05 33.79,32.9 49.39,65.07 51.69,94.15 9.17,116.03 -172.4,185.3 -297.56,49.8 z"
     id="path477"
     style="clip-rule:evenodd;display:inline;fill:url(#linearGradient20);fill-rule:evenodd;image-rendering:optimizeQuality;shape-rendering:geometricPrecision;text-rendering:geometricPrecision;fill-opacity:1"
     inkscape:label="Main Body" /><path
     class="fil8"
     d="m 124.04996,458.88067 c -22.92,-2.2 -43.480004,16.72 -45.930004,42.25 -2.45,25.54 14.140001,48.02 37.060004,50.22 8.95,0.85 17.54,-1.51 24.83,-6.23 -14.01,-22.23 -4.69,-53.17 10,-72.48 -6.59,-7.66 -15.63,-12.77 -25.96,-13.76 z"
     id="path479"
     style="clip-rule:evenodd;display:inline;fill:url(#linearGradient18);fill-rule:evenodd;image-rendering:optimizeQuality;shape-rendering:geometricPrecision;text-rendering:geometricPrecision;fill-opacity:1"
     inkscape:label="Head" /><path
     d="m 340.88996,557.50067 c 0,0 39.18011,21.6518 54.37109,60.541 l -39.83985,3.039 c -12.6281,-21.5983 -36.76062,-31.8691 -36.76062,-31.8691 z"
     id="path47142"
     style="display:none;opacity:0.665;fill:url(#linearGradient47342);fill-opacity:1"
     inkscape:label="Shading Middle" /><path
     class="fil15"
     d="m 318.65996,589.21067 c -38.37,-18.48 -92.27,-18.89 -125.61,-28.95 -38.66,-11.66 -48.11,-37.43 -40.51,-59.78 l 46.28,2.66 c 0,0 -11.12,24.71 54.36,30.89 65.47,6.17 87.71,23.47 87.71,23.47 z"
     id="path493"
     style="clip-rule:evenodd;display:none;opacity:0.544;fill:url(#linearGradient46);fill-opacity:1;fill-rule:evenodd;image-rendering:optimizeQuality;shape-rendering:geometricPrecision;text-rendering:geometricPrecision"
     inkscape:label="Shading Top" /><path
     class="fil13"
     d="m 255.22996,440.37067 c 35.34,-16.66 63.68,-39.9 35.32,-67.91 45.85,-2.52 39.63,69.94 -26.85,89.78 z"
     id="path489"
     style="clip-rule:evenodd;display:inline;fill:url(#linearGradient22);fill-rule:evenodd;image-rendering:optimizeQuality;shape-rendering:geometricPrecision;text-rendering:geometricPrecision;fill-opacity:1"
     inkscape:label="Shading Arm" /><path
     id="path59"
     style="clip-rule:evenodd;display:inline;opacity:1;fill:url(#linearGradient59);fill-rule:evenodd;image-rendering:optimizeQuality;shape-rendering:geometricPrecision;text-rendering:geometricPrecision;fill-opacity:1"
     class="fil15"
     inkscape:label="Body Shading"
     d="m 318.65996,589.21067 c -38.37,-18.48 -92.27,-18.89 -125.61,-28.95 -38.66,-11.66 -48.11,-37.43 -40.51,-59.78 l 46.28,2.66 c 0,0 -11.12,24.71 54.36,30.89 65.47,6.17 87.71,23.47 87.71,23.47 z m 22.23,-31.71 c 0,0 39.18011,21.6518 54.37109,60.541 l -39.83985,3.039 c -12.6281,-21.5983 -36.76062,-31.8691 -36.76062,-31.8691 z m -178.91,121.76 c 58.71,27.16 113.95,29.6 151.63,18.49 48.37,-14.26 58.64,-48.3 41.81,-76.67 l 39.84,-3.04 c 46.37,145.17 -152.26,127.37 -233.28,61.22 z" /></g><g
   inkscape:groupmode="layer"
   id="layer2"
   inkscape:label="Suplexee"
   style="display:inline"><path
     class="fil10"
     d="m 473.49996,330.64067 c -67.48,-69.03 -217.77,-38.09 -207.36,15.14 3.94,20.16 34.05,43.6 -1.05,69.66 -35.18,26.13 -75.76,22.64 -102.64,44.73 -70.040003,-241.4 250.84,-269.42 311.05,-129.53 z m -113.53,80.83 c 66.17,22.32 143.53,108.46 114.41,209.27 -4.84,-66.17 -65.38,-122.97 -133.88,-154.48 7.35,-12.09 16.7,-30.79 19.47,-54.79 z"
     id="path483"
     style="clip-rule:evenodd;display:inline;fill:url(#linearGradient78296);fill-rule:evenodd;image-rendering:optimizeQuality;shape-rendering:geometricPrecision;text-rendering:geometricPrecision"
     inkscape:label="Main Body" /><path
     class="fil9"
     d="m 141.63996,288.53067 c -23.48,-3.51 -46.580004,14.15 -51.590003,39.43 -5.010001,25.29 9.960003,48.63 33.440003,52.13 3.95,0.59 7.9,0.58 11.75,0.03 2.26,-28.78 11.1,-56.25 28.55,-80.3 -5.79,-5.91 -13.38,-9.99 -22.15,-11.29 z"
     id="path481"
     inkscape:label="Head"
     style="clip-rule:evenodd;display:inline;fill:url(#linearGradient2);fill-opacity:1;fill-rule:evenodd;image-rendering:optimizeQuality;shape-rendering:geometricPrecision;text-rendering:geometricPrecision" /><path
     class="fil11"
     d="m 474.37996,620.74067 c 0,0 22.13,-109.56 -121.14,-180.82 -3.87,10.71 -8.62,19.56 -12.74,26.34 68.5,31.51 129.04,88.31 133.88,154.48 z"
     id="path485"
     style="clip-rule:evenodd;display:inline;fill:url(#linearGradient16);fill-rule:evenodd;image-rendering:optimizeQuality;shape-rendering:geometricPrecision;text-rendering:geometricPrecision"
     inkscape:label="Shading Leg" /><path
     class="fil12"
     d="m 473.49996,330.64067 c -67.48,-69.03 -217.77,-38.09 -207.36,15.14 l -49.38,-20.97 c 37.71,-81.57 206.27,-73.27 256.74,5.83 z"
     id="path487"
     style="clip-rule:evenodd;display:inline;fill:url(#linearGradient9);fill-rule:evenodd;image-rendering:optimizeQuality;shape-rendering:geometricPrecision;text-rendering:geometricPrecision"
     inkscape:label="Shading Arm" /><path
     class="fil16"
     d="m 265.73996,342.78067 0.01,0.11 -0.03,-0.11 z m 0.82,4.82 c 5.27,19.74 32.58,42.56 -1.47,67.84 -35.18,26.13 -75.76,22.64 -102.64,44.73 -2.76,-9.51 -4.85,-18.65 -6.43,-27.5 25.62,-21.73 69.97,-22.28 89.41,-32.39 23.97,-12.48 22.7,-41.25 21.13,-52.68 z"
     id="path495"
     style="clip-rule:evenodd;display:inline;fill:url(#linearGradient14);fill-rule:evenodd;image-rendering:optimizeQuality;shape-rendering:geometricPrecision;text-rendering:geometricPrecision"
     inkscape:label="Shading Body" /></g><g
   inkscape:groupmode="layer"
   id="layer3"
   inkscape:label="A"
   style="display:inline"
   sodipodi:insensitive="true"><path
     class="fil5"
     d="m 568.73996,744.18067 c 117.79,0 235.58,0 353.38004,0 l -106.76004,-233.76 -113.7,-248.99 -220.45,482.75 h 58.47 c 53.99,-118.24 107.98,-236.48 161.98,-354.71 l 137.6,301.32 h -187.67 l 12.13,-26.56 134.28,-0.17 -17.24,-37.74 -79.1,-173.22 -29.24,64.02 c 12.3,26.92 30.43,66.64 42.73,93.56 -24.59,0 -60.97,0.24 -85.56,0.24 -20.28,44.42 -40.57,88.84 -60.85,133.26 z"
     id="path473"
     style="clip-rule:evenodd;display:inline;fill:url(#linearGradient47150);fill-opacity:1;fill-rule:evenodd;image-rendering:optimizeQuality;shape-rendering:geometricPrecision;text-rendering:geometricPrecision"
     inkscape:label="A Outline" /><path
     class="fil6"
     d="m 634.49996,618.55067 c -17.96,39.33 -35.92,78.66 -53.88,117.99 109.87,0 219.74,0 329.61004,0 l -101.81004,-222.95 -106.76,-233.78 -208.57,456.73 h 41.68 c 53.32,-116.75 106.63,-233.5 159.94,-350.24 l 6.95,-15.21 149.49,327.34 h -211.44 l 19.1,-41.83 127.31,-0.16 -84.46,-184.95 -20.84,45.63 c 13.76,30.13 27.51,60.26 41.27,90.38 l 4.94,10.81 h -11.88 c -26.89,0 -53.77,0.22 -80.65,0.24 z"
     id="path475"
     inkscape:label="A"
     style="clip-rule:evenodd;display:inline;fill:url(#linearGradient8849);fill-rule:evenodd;image-rendering:optimizeQuality;shape-rendering:geometricPrecision;text-rendering:geometricPrecision" /></g>
</svg>
