<?xml version="1.0" encoding="UTF-8" standalone="no"?>
<!-- Creator: CorelDRAW 2020 (64-Bit) -->

<svg
   xml:space="preserve"
   width="1000"
   height="1000"
   version="1.1"
   style="clip-rule:evenodd;fill-rule:evenodd;image-rendering:optimizeQuality;shape-rendering:geometricPrecision;text-rendering:geometricPrecision"
   viewBox="0 0 1000 1000"
   id="svg498"
   sodipodi:docname="logo-platinum-xtra.svg"
   inkscape:version="1.3.2 (091e20ef0f, 2023-11-25)"
   inkscape:export-filename="logoBadge.png"
   inkscape:export-xdpi="96"
   inkscape:export-ydpi="96"
   xmlns:inkscape="http://www.inkscape.org/namespaces/inkscape"
   xmlns:sodipodi="http://sodipodi.sourceforge.net/DTD/sodipodi-0.dtd"
   xmlns:xlink="http://www.w3.org/1999/xlink"
   xmlns="http://www.w3.org/2000/svg"
   xmlns:svg="http://www.w3.org/2000/svg"><sodipodi:namedview
   id="namedview500"
   pagecolor="#141414"
   bordercolor="#000000"
   borderopacity="0.25"
   inkscape:showpageshadow="2"
   inkscape:pageopacity="0.0"
   inkscape:pagecheckerboard="0"
   inkscape:deskcolor="#3c3c3c"
   showgrid="false"
   inkscape:zoom="0.514296091185"
   inkscape:cx="444.296590848"
   inkscape:cy="609.571033834"
   inkscape:window-width="1920"
   inkscape:window-height="1011"
   inkscape:window-x="0"
   inkscape:window-y="0"
   inkscape:window-maximized="1"
   inkscape:current-layer="g98"
   showguides="true"
   inkscape:lockguides="false" />
 <defs
   id="defs458"><linearGradient
     id="linearGradient98"
     gradientUnits="userSpaceOnUse"
     x1="1197.54"
     y1="734.91998"
     x2="1200.05"
     y2="1242.72"
     spreadMethod="pad"
     inkscape:label="SA">
  
   
   <stop
   offset="0.1576455832"
   style="stop-color:#7d7d7d;stop-opacity:0.5;"
   id="stop97" /><stop
   offset="1"
   style="stop-color:#c4c4c4;stop-opacity:0;"
   id="stop95" />
   
   
   </linearGradient><linearGradient
     id="linearGradient92"
     gradientUnits="userSpaceOnUse"
     x1="1202.65"
     y1="789.88"
     x2="1199.9"
     y2="1235.08">
   
   <stop
   offset="0.1352600455"
   style="stop-color:#878787;stop-opacity:0.6999999881;"
   id="stop89" />
   <stop
   offset="0.3995192051"
   style="stop-color:#b4b4b4;stop-opacity:1;"
   id="stop90" />
   
   <stop
   offset="1"
   style="stop-color:#8c8c8c;stop-opacity:0;"
   id="stop92" />
  </linearGradient><linearGradient
     id="linearGradient80"
     gradientUnits="userSpaceOnUse"
     x1="1202.65"
     y1="789.88"
     x2="1199.9"
     y2="1235.08">
   <stop
   offset="0"
   style="stop-opacity:1; stop-color:#757575"
   id="stop76" />
   <stop
   offset="0.219608"
   style="stop-opacity:1; stop-color:#F0F0F0"
   id="stop77" />
   <stop
   offset="0.5215690136"
   style="stop-color:#7d7d7d;stop-opacity:0.8000000119;"
   id="stop78" />
   <stop
   offset="0.780392"
   style="stop-opacity:1; stop-color:#EDEDED"
   id="stop79" />
   <stop
   offset="1"
   style="stop-color:#2b2b2b;stop-opacity:0.6000000238;"
   id="stop80" />
  </linearGradient><linearGradient
     id="linearGradient72"
     gradientUnits="userSpaceOnUse"
     x1="1197.54"
     y1="734.91998"
     x2="1200.05"
     y2="1242.72"
     spreadMethod="pad"
     inkscape:label="SA">
   
   
   <stop
   offset="0"
   style="stop-color:#dadada;stop-opacity:1;"
   id="stop70" /><stop
   offset="0.3353141844"
   style="stop-color:#ffffff;stop-opacity:1;"
   id="stop74" /><stop
   offset="0.8254902363"
   style="stop-color:#7d7d7d;stop-opacity:1;"
   id="stop71" />
   <stop
   offset="1"
   style="stop-color:#646464;stop-opacity:1;"
   id="stop72" />
   
  </linearGradient><linearGradient
     id="linearGradient66"
     gradientUnits="userSpaceOnUse"
     x1="1197.54"
     y1="734.91998"
     x2="1200.05"
     y2="1242.72"
     spreadMethod="pad"
     inkscape:label="SA-main">
   
   
   <stop
   offset="0"
   style="stop-color:#f0f0f0;stop-opacity:1;"
   id="stop64" /><stop
   offset="0.2427892387"
   style="stop-color:#b4b4b4;stop-opacity:1;"
   id="stop68" /><stop
   offset="0.4775906503"
   style="stop-color:#969696;stop-opacity:1;"
   id="stop65" /><stop
   offset="0.733496964"
   style="stop-color:#ffffff;stop-opacity:1;"
   id="stop67" />
   <stop
   offset="1"
   style="stop-color:#5a5a5a;stop-opacity:1;"
   id="stop66" />
   
  </linearGradient><linearGradient
     id="linearGradient62"
     gradientUnits="userSpaceOnUse"
     x1="1202.65"
     y1="789.88"
     x2="1199.9"
     y2="1235.08">
   
   <stop
   offset="0.1352600455"
   style="stop-color:#878787;stop-opacity:0.3000000119;"
   id="stop59" />
   <stop
   offset="0.3995192051"
   style="stop-color:#b4b4b4;stop-opacity:1;"
   id="stop60" />
   <stop
   offset="0.70986408"
   style="stop-opacity:1; stop-color:#EDEDED"
   id="stop61" />
   <stop
   offset="1"
   style="stop-color:#8c8c8c;stop-opacity:0.400000006;"
   id="stop62" />
  </linearGradient><linearGradient
     id="linearGradient58"
     gradientUnits="userSpaceOnUse"
     x1="1202.65"
     y1="789.88"
     x2="1199.9"
     y2="1235.08">
   
   <stop
   offset="0.219607994"
   style="stop-color:#8f8f8f;stop-opacity:0.6999999881;"
   id="stop55" />
   <stop
   offset="0.521569"
   style="stop-opacity:1; stop-color:#7D7D7D"
   id="stop56" />
   <stop
   offset="0.780392"
   style="stop-opacity:1; stop-color:#EDEDED"
   id="stop57" />
   <stop
   offset="1"
   style="stop-color:#646464;stop-opacity:1;"
   id="stop58" />
  </linearGradient><linearGradient
     id="linearGradient44"
     gradientUnits="userSpaceOnUse"
     x1="1202.65"
     y1="789.88"
     x2="1199.9"
     y2="1235.08">
   <stop
   offset="0.1047604382"
   style="stop-color:#dddddd;stop-opacity:0.3000000119;"
   id="stop40" /><stop
   offset="0.2345936"
   style="stop-color:#757575;stop-opacity:0.3000000119;"
   id="stop81" />
   <stop
   offset="0.477094382"
   style="stop-opacity:1; stop-color:#F0F0F0"
   id="stop41" />
   <stop
   offset="0.7085107565"
   style="stop-opacity:1; stop-color:#7D7D7D"
   id="stop42" />
   <stop
   offset="1"
   style="stop-opacity:1; stop-color:#EDEDED"
   id="stop43" />
   
  </linearGradient><linearGradient
     id="linearGradient35"
     gradientUnits="userSpaceOnUse"
     x1="1197.54"
     y1="734.91998"
     x2="1200.05"
     y2="1242.72"
     spreadMethod="pad"
     inkscape:label="SA">
   
   
   <stop
   offset="0"
   style="stop-color:#c4c4c4;stop-opacity:0;"
   id="stop32" /><stop
   offset="0.3516111374"
   style="stop-color:#ffffff;stop-opacity:1;"
   id="stop33" /><stop
   offset="0.8254902363"
   style="stop-color:#7d7d7d;stop-opacity:1;"
   id="stop34" />
   <stop
   offset="1"
   style="stop-color:#646464;stop-opacity:1;"
   id="stop35" />
   
  </linearGradient><linearGradient
     id="linearGradient11"
     gradientUnits="userSpaceOnUse"
     x1="1197.54"
     y1="734.91998"
     x2="1200.05"
     y2="1242.72"
     spreadMethod="pad"
     inkscape:label="SA">
   
   
   <stop
   offset="0"
   style="stop-opacity:1; stop-color:#7D7D7D"
   id="stop9" /><stop
   offset="0.2749448419"
   style="stop-color:#ffffff;stop-opacity:1;"
   id="stop10" /><stop
   offset="0.8254902363"
   style="stop-color:#7d7d7d;stop-opacity:1;"
   id="stop12" />
   <stop
   offset="1"
   style="stop-color:#646464;stop-opacity:1;"
   id="stop11" />
   
  </linearGradient><linearGradient
     id="linearGradient4618"
     inkscape:swatch="solid"><stop
       style="stop-color:#ffffff;stop-opacity:1;"
       offset="0"
       id="stop4616" /></linearGradient><linearGradient
     id="linearGradient47350"
     gradientUnits="userSpaceOnUse"
     x1="590.82001"
     y1="970.98999"
     x2="653.27002"
     y2="1036.17">
   <stop
   offset="0"
   style="stop-color:#1eb6c8;stop-opacity:1;"
   id="stop47346" /><stop
   offset="0.47540298"
   style="stop-color:#21a4c5;stop-opacity:1;"
   id="stop67958" />
   <stop
   offset="1"
   style="stop-color:#2492c2;stop-opacity:1;"
   id="stop47348" />
  </linearGradient><style
     type="text/css"
     id="style364">
   <![CDATA[
    .fil0 {fill:white}
    .fil1 {fill:black;fill-rule:nonzero}
    .fil2 {fill:white;fill-rule:nonzero}
    .fil5 {fill:url(#id0)}
    .fil12 {fill:url(#id1)}
    .fil15 {fill:url(#id2)}
    .fil11 {fill:url(#id3)}
    .fil10 {fill:url(#id4)}
    .fil7 {fill:url(#id5)}
    .fil16 {fill:url(#id6)}
    .fil13 {fill:url(#id7)}
    .fil6 {fill:url(#id8)}
    .fil14 {fill:url(#id9)}
    .fil9 {fill:url(#id10)}
    .fil8 {fill:url(#id11)}
    .fil4 {fill:url(#id12);fill-rule:nonzero}
    .fil3 {fill:url(#id13);fill-rule:nonzero}
   ]]>
  </style><linearGradient
     id="id0-1"
     gradientUnits="userSpaceOnUse"
     x1="1197.54"
     y1="734.91998"
     x2="1200.05"
     y2="1242.72"
     spreadMethod="pad"
     inkscape:label="SA-main">
   
   
   <stop
   offset="0"
   style="stop-opacity:1; stop-color:#7D7D7D"
   id="stop370" /><stop
   offset="0.6509804726"
   style="stop-color:#ffffff;stop-opacity:1;"
   id="stop7" />
   <stop
   offset="1"
   style="stop-color:#7d7d7d;stop-opacity:1;"
   id="stop372" />
   
  </linearGradient><linearGradient
     id="id2"
     gradientUnits="userSpaceOnUse"
     x1="681.87"
     y1="1005.08"
     x2="825.79999"
     y2="1068.09"
     gradientTransform="translate(-495.72004,-498.53933)">
   <stop
   offset="0.14425844"
   style="stop-color:#16c8d5;stop-opacity:1;"
   id="stop382" />
   <stop
   offset="0.18680455"
   style="stop-color:#1eb6c8;stop-opacity:1;"
   id="stop384" /><stop
   offset="0.43038145"
   style="stop-color:#0a7d8f;stop-opacity:1;"
   id="stop50558" />
   <stop
   offset="1"
   style="stop-opacity:1; stop-color:#1AAECE"
   id="stop386" />
  </linearGradient><linearGradient
     id="id8"
     gradientUnits="userSpaceOnUse"
     x1="1202.65"
     y1="789.88"
     x2="1199.9"
     y2="1235.08">
   <stop
   offset="0"
   style="stop-opacity:1; stop-color:#757575"
   id="stop418" />
   <stop
   offset="0.219608"
   style="stop-opacity:1; stop-color:#F0F0F0"
   id="stop420" />
   <stop
   offset="0.521569"
   style="stop-opacity:1; stop-color:#7D7D7D"
   id="stop422" />
   <stop
   offset="0.780392"
   style="stop-opacity:1; stop-color:#EDEDED"
   id="stop424" />
   <stop
   offset="1"
   style="stop-opacity:1; stop-color:#2B2B2B"
   id="stop426" />
  </linearGradient><linearGradient
     id="id9"
     gradientUnits="userSpaceOnUse"
     x1="847.12"
     y1="1238.89"
     x2="851.14001"
     y2="1119.62"
     gradientTransform="translate(-495.72004,-498.53933)">
   <stop
   offset="0"
   style="stop-opacity:1; stop-color:#2D166E"
   id="stop429" />
   <stop
   offset="1"
   style="stop-opacity:1; stop-color:#2492C4"
   id="stop431" />
  </linearGradient><linearGradient
     inkscape:collect="always"
     xlink:href="#id8"
     id="linearGradient47150"
     x1="976.92999"
     y1="1001.345"
     x2="1417.84"
     y2="1001.345"
     gradientUnits="userSpaceOnUse"
     gradientTransform="translate(-495.72004,-498.53933)" /><linearGradient
     inkscape:collect="always"
     xlink:href="#linearGradient47350"
     id="linearGradient47342"
     x1="814.38"
     y1="1087.8291"
     x2="890.98047"
     y2="1087.8291"
     gradientUnits="userSpaceOnUse"
     gradientTransform="translate(-495.71942,-498.53843)" /><linearGradient
     inkscape:collect="always"
     xlink:href="#id8"
     id="linearGradient8849"
     gradientUnits="userSpaceOnUse"
     x1="1202.65"
     y1="789.88"
     x2="1199.9"
     y2="1235.08"
     gradientTransform="translate(-495.72004,-498.53933)" /><linearGradient
     inkscape:collect="always"
     xlink:href="#id0-1"
     id="linearGradient14"
     x1="156.019958496"
     y1="401.47567749"
     x2="293.646972656"
     y2="401.47567749"
     gradientUnits="userSpaceOnUse" /><linearGradient
     inkscape:collect="always"
     xlink:href="#linearGradient66"
     id="linearGradient20"
     x1="77.8792037964"
     y1="753.731689453"
     x2="480.694824219"
     y2="246.268203735"
     gradientUnits="userSpaceOnUse" /><linearGradient
     inkscape:collect="always"
     xlink:href="#linearGradient35"
     id="linearGradient22"
     x1="255.22996521"
     y1="417.318603516"
     x2="320.164733887"
     y2="417.318603516"
     gradientUnits="userSpaceOnUse" /><linearGradient
     inkscape:collect="always"
     xlink:href="#linearGradient58"
     id="linearGradient46"
     x1="154.179870605"
     y1="544.84564209"
     x2="340.889953613"
     y2="544.84564209"
     gradientUnits="userSpaceOnUse" /><linearGradient
     inkscape:collect="always"
     xlink:href="#linearGradient62"
     id="linearGradient59"
     gradientUnits="userSpaceOnUse"
     x1="154.179870605"
     y1="544.84564209"
     x2="340.889953613"
     y2="544.84564209" /><linearGradient
     inkscape:collect="always"
     xlink:href="#linearGradient44"
     id="linearGradient74"
     x1="216.759963989"
     y1="306.569396973"
     x2="493.08996582"
     y2="306.569396973"
     gradientUnits="userSpaceOnUse" /><linearGradient
     inkscape:collect="always"
     xlink:href="#linearGradient80"
     id="linearGradient76"
     x1="340.499969482"
     y1="530.330688477"
     x2="475.612670898"
     y2="530.330688477"
     gradientUnits="userSpaceOnUse"
     spreadMethod="pad" /></defs>
 <rect
   style="clip-rule:evenodd;display:none;opacity:0.500271;fill:#ff01c9;fill-opacity:1;fill-rule:evenodd;stroke:#000000;stroke-width:0;stroke-dasharray:none;stroke-opacity:1;image-rendering:optimizeQuality;shape-rendering:geometricPrecision;text-rendering:geometricPrecision"
   id="rect7506"
   width="844.23999"
   height="507.46457"
   x="77.880005"
   y="246.26772"
   sodipodi:insensitive="true" /><g
   id="g98"><g
     inkscape:groupmode="layer"
     id="layer1"
     inkscape:label="Suplexer"
     style="display:inline"><path
       id="path477"
       style="clip-rule:evenodd;display:inline;fill:url(#linearGradient20);fill-rule:evenodd;image-rendering:optimizeQuality;shape-rendering:geometricPrecision;text-rendering:geometricPrecision;fill-opacity:1"
       class="fil7"
       inkscape:label="Main Body"
       d="M 314.744140625 246.333984375 C 217.092210429 248.733445171 120.863008555 316.838815206 162.44921875 460.169921875 C 189.32919187 438.079943965 229.90987893 441.57138012 265.08984375 415.44140625 C 300.18980865 389.38143231 270.08062106 365.94122984 266.140625 345.78125 C 255.73063541 292.55130323 406.02006748 261.61069403 473.5 330.640625 C 449.03971196 273.81036933 381.55861918 244.692248041 314.744140625 246.333984375 z M 135.060546875 288.08984375 C 113.987449359 288.398225094 94.5910883034 305.05096041 90.05078125 327.9609375 C 85.04078526 353.25091221 100.010257855 376.58984725 123.490234375 380.08984375 C 127.440230425 380.67984316 131.390238225 380.6710932 135.240234375 380.12109375 C 137.500232115 351.34112253 146.33907995 323.87028845 163.7890625 299.8203125 C 157.99906829 293.91031841 150.41061623 289.8312487 141.640625 288.53125 C 139.439377201 288.202187829 137.24052248 288.057942232 135.060546875 288.08984375 z M 311.326171875 365.76953125 C 304.938392008 365.47596648 297.896398904 367.482192479 290.55078125 372.4609375 C 319.12075268 400.67090929 290.14918305 424.050251065 254.44921875 440.740234375 C 230.36924283 452.000223115 180.729590745 460.97080383 162.099609375 483.55078125 C 141.959629515 507.98075682 144.02083028 545.469780415 193.05078125 560.259765625 C 226.44074786 570.339755545 280.440116515 570.731034185 318.830078125 589.291015625 C 373.990022965 615.970988945 383.08930552 677.27002048 313.609375 697.75 C 275.92941268 708.85998889 220.69041004 706.419738465 161.98046875 679.259765625 C 287.14034359 814.759630125 468.70905333 745.49082147 459.5390625 629.4609375 C 457.2390648 600.38096658 441.639575585 568.210513975 407.849609375 535.310546875 C 382.739634485 510.860571325 348.52901926 489.549751335 305.2890625 475.259765625 C 321.05904673 460.049780835 332.99047449 443.280061175 338.73046875 426.330078125 C 348.605458875 397.20510725 334.1396714 366.817976857 311.326171875 365.76953125 z M 359.970703125 411.470703125 C 357.200705895 435.470679125 347.84999265 454.169777715 340.5 466.259765625 C 408.9999315 497.769734115 469.540864215 554.570300545 474.380859375 620.740234375 C 503.500830255 519.930335185 426.140636955 433.790680805 359.970703125 411.470703125 z M 119.783203125 458.712890625 C 98.6299645615 459.072253059 80.4160133281 477.196508309 78.119140625 501.130859375 C 75.669143075 526.670833835 92.25970742 549.1515647 115.1796875 551.3515625 C 124.12967855 552.20156165 132.719772915 549.84108903 140.009765625 545.12109375 C 125.999779635 522.89111598 135.319780315 491.95060569 150.009765625 472.640625 C 143.419772215 464.98063266 134.38077092 459.870858385 124.05078125 458.880859375 C 122.618282682 458.743359512 121.193419029 458.688933129 119.783203125 458.712890625 z " /><path
       d="m 340.88996,557.50067 c 0,0 39.18011,21.6518 54.37109,60.541 l -39.83985,3.039 c -12.6281,-21.5983 -36.76062,-31.8691 -36.76062,-31.8691 z"
       id="path47142"
       style="display:none;opacity:0.665;fill:url(#linearGradient47342);fill-opacity:1"
       inkscape:label="Shading Middle" /><path
       class="fil15"
       d="m 318.65996,589.21067 c -38.37,-18.48 -92.27,-18.89 -125.61,-28.95 -38.66,-11.66 -48.11,-37.43 -40.51,-59.78 l 46.28,2.66 c 0,0 -11.12,24.71 54.36,30.89 65.47,6.17 87.71,23.47 87.71,23.47 z"
       id="path493"
       style="clip-rule:evenodd;display:none;opacity:0.544;fill:url(#linearGradient46);fill-opacity:1;fill-rule:evenodd;image-rendering:optimizeQuality;shape-rendering:geometricPrecision;text-rendering:geometricPrecision"
       inkscape:label="Shading Top" /><path
       class="fil13"
       d="m 255.22996,440.37067 c 35.34,-16.66 63.68,-39.9 35.32,-67.91 45.85,-2.52 39.63,69.94 -26.85,89.78 z"
       id="path489"
       style="clip-rule:evenodd;display:inline;fill:url(#linearGradient22);fill-rule:evenodd;image-rendering:optimizeQuality;shape-rendering:geometricPrecision;text-rendering:geometricPrecision;fill-opacity:1"
       inkscape:label="Shading Arm" /><path
       id="path59"
       style="clip-rule:evenodd;display:none;opacity:1;fill:url(#linearGradient59);fill-opacity:1;fill-rule:evenodd;image-rendering:optimizeQuality;shape-rendering:geometricPrecision;text-rendering:geometricPrecision"
       class="fil15"
       inkscape:label="Body Shading"
       d="m 318.65996,589.21067 c -38.37,-18.48 -92.27,-18.89 -125.61,-28.95 -38.66,-11.66 -48.11,-37.43 -40.51,-59.78 l 46.28,2.66 c 0,0 -11.12,24.71 54.36,30.89 65.47,6.17 87.71,23.47 87.71,23.47 z m 22.23,-31.71 c 0,0 39.18011,21.6518 54.37109,60.541 l -39.83985,3.039 c -12.6281,-21.5983 -36.76062,-31.8691 -36.76062,-31.8691 z m -178.91,121.76 c 58.71,27.16 113.95,29.6 151.63,18.49 48.37,-14.26 58.64,-48.3 41.81,-76.67 l 39.84,-3.04 c 46.37,145.17 -152.26,127.37 -233.28,61.22 z" /><path
       id="path98"
       style="clip-rule:evenodd;display:inline;opacity:1;fill:url(#linearGradient59);fill-rule:evenodd;image-rendering:optimizeQuality;shape-rendering:geometricPrecision;text-rendering:geometricPrecision;fill-opacity:1"
       class="fil15"
       inkscape:label="Body Shading"
       d="m 318.65996,589.21067 c -38.37,-18.48 -92.27,-18.89 -125.61,-28.95 -38.66,-11.66 -48.11,-37.43 -40.51,-59.78 l 46.28,2.66 c 0,0 -11.12,24.71 54.36,30.89 65.47,6.17 87.71,23.47 87.71,23.47 z m 22.23,-31.71 c 0,0 39.18011,21.6518 54.37109,60.541 l -39.83985,3.039 c -12.6281,-21.5983 -36.76062,-31.8691 -36.76062,-31.8691 z m -178.91,121.76 c 58.71,27.16 113.95,29.6 151.63,18.49 48.37,-14.26 58.64,-48.3 41.81,-76.67 l 39.84,-3.04 c 46.37,145.17 -152.26,127.37 -233.28,61.22 z" /></g><g
     inkscape:groupmode="layer"
     id="layer2"
     inkscape:label="Suplexee"
     style="display:inline"><path
       class="fil11"
       d="m 474.37996,620.74067 c 0,0 22.13,-109.56 -121.14,-180.82 -3.87,10.71 -8.62,19.56 -12.74,26.34 68.5,31.51 129.04,88.31 133.88,154.48 z"
       id="path485"
       style="clip-rule:evenodd;display:inline;fill:url(#linearGradient76);fill-rule:evenodd;image-rendering:optimizeQuality;shape-rendering:geometricPrecision;text-rendering:geometricPrecision;fill-opacity:1"
       inkscape:label="Shading Leg" /><path
       class="fil12"
       d="m 473.49996,330.64067 c -67.48,-69.03 -217.77,-38.09 -207.36,15.14 l -49.38,-20.97 c 37.71,-81.57 206.27,-73.27 256.74,5.83 z"
       id="path487"
       style="clip-rule:evenodd;display:inline;fill:url(#linearGradient74);fill-rule:evenodd;image-rendering:optimizeQuality;shape-rendering:geometricPrecision;text-rendering:geometricPrecision;fill-opacity:1"
       inkscape:label="Shading Arm" /><path
       class="fil16"
       d="m 265.73996,342.78067 0.01,0.11 -0.03,-0.11 z m 0.82,4.82 c 5.27,19.74 32.58,42.56 -1.47,67.84 -35.18,26.13 -75.76,22.64 -102.64,44.73 -2.76,-9.51 -4.85,-18.65 -6.43,-27.5 25.62,-21.73 69.97,-22.28 89.41,-32.39 23.97,-12.48 22.7,-41.25 21.13,-52.68 z"
       id="path495"
       style="clip-rule:evenodd;display:inline;fill:url(#linearGradient14);fill-rule:evenodd;image-rendering:optimizeQuality;shape-rendering:geometricPrecision;text-rendering:geometricPrecision"
       inkscape:label="Shading Body" /></g></g><g
   inkscape:groupmode="layer"
   id="layer3"
   inkscape:label="A"
   style="display:inline"
   sodipodi:insensitive="true"><path
     class="fil5"
     d="m 568.73996,744.18067 c 117.79,0 235.58,0 353.38004,0 l -106.76004,-233.76 -113.7,-248.99 -220.45,482.75 h 58.47 c 53.99,-118.24 107.98,-236.48 161.98,-354.71 l 137.6,301.32 h -187.67 l 12.13,-26.56 134.28,-0.17 -17.24,-37.74 -79.1,-173.22 -29.24,64.02 c 12.3,26.92 30.43,66.64 42.73,93.56 -24.59,0 -60.97,0.24 -85.56,0.24 -20.28,44.42 -40.57,88.84 -60.85,133.26 z"
     id="path473"
     style="clip-rule:evenodd;display:inline;fill:url(#linearGradient47150);fill-opacity:1;fill-rule:evenodd;image-rendering:optimizeQuality;shape-rendering:geometricPrecision;text-rendering:geometricPrecision"
     inkscape:label="A Outline" /><path
     class="fil6"
     d="m 634.49996,618.55067 c -17.96,39.33 -35.92,78.66 -53.88,117.99 109.87,0 219.74,0 329.61004,0 l -101.81004,-222.95 -106.76,-233.78 -208.57,456.73 h 41.68 c 53.32,-116.75 106.63,-233.5 159.94,-350.24 l 6.95,-15.21 149.49,327.34 h -211.44 l 19.1,-41.83 127.31,-0.16 -84.46,-184.95 -20.84,45.63 c 13.76,30.13 27.51,60.26 41.27,90.38 l 4.94,10.81 h -11.88 c -26.89,0 -53.77,0.22 -80.65,0.24 z"
     id="path475"
     inkscape:label="A"
     style="clip-rule:evenodd;display:inline;fill:url(#linearGradient8849);fill-rule:evenodd;image-rendering:optimizeQuality;shape-rendering:geometricPrecision;text-rendering:geometricPrecision" /></g>
</svg>
